<?xml version="1.0" encoding="utf-8"?>
<!-- Generator: Adobe Illustrator 22.0.1, SVG Export Plug-In . SVG Version: 6.00 Build 0)  -->
<svg version="1.1" id="Layer_1" xmlns="http://www.w3.org/2000/svg" xmlns:xlink="http://www.w3.org/1999/xlink" x="0px" y="0px"
	 viewBox="0 0 270.7 170.9" style="enable-background:new 0 0 270.7 170.9;" xml:space="preserve">
<style type="text/css">
	.st0{fill:#fff;}
	.st1{fill-rule:evenodd;clip-rule:evenodd;fill:#fff;}
</style>
<path class="st0" d="M37.4,128.9l-7.1-7.6V109h-7.7v61.8H15V109H7.2v19.8L0,136.5v-29.8h37.4V128.9L37.4,128.9z M71.9,170.9H44.9
	v-64.2h27.1v22.2l-7.7-7.6V109h-12v25.4h7.3c1.9,0,3.6,0.9,5.2,2.6c1.4,1.6,2.4,3.3,2.9,5.3h-7c0-1.4-0.5-2.7-1.6-3.8
	c-1.1-1.2-2.3-1.8-3.7-1.8h-3v31.7h12v-12.2l7.7-7.6V170.9L71.9,170.9z M108,120.2c0,5.2-1.4,10-4.2,14.4c-3.1,5-7.1,7.5-12.1,7.5
	h-3v28.8h-7.4v-64.2h18.4c1.6,0,3.1,0.3,4.5,1c1.7,0.8,2.7,1.9,2.9,3.2C107.7,114.7,108,117.8,108,120.2L108,120.2z M100.6,120.3
	c0-2.2-0.3-5.9-0.9-11.3h-11v30.7h2.2c2.7-1.1,5.1-3.9,7.1-8.4C99.7,127.5,100.6,123.8,100.6,120.3L100.6,120.3z M142.5,170.9h-27.1
	v-64.2h27.1v22.2l-7.7-7.6V109h-12v25.4h7.3c1.9,0,3.6,0.9,5.2,2.6c1.4,1.6,2.4,3.3,2.9,5.3h-7c0-1.4-0.5-2.7-1.6-3.8
	c-1.1-1.2-2.3-1.8-3.7-1.8h-3v31.7h12v-12.2l7.7-7.6V170.9L142.5,170.9z M199,170.9h-7.4v-53.7l-12.5,11.2v42.5h-7.4v-54.3
	c-4.6,0-7.9,2.6-10.1,7.9c-1.6,3.9-2.3,8.5-2.3,13.9v32.5h-7.4v-32.6c0-6.5,1.7-12.1,5.2-16.8c3.5-4.7,8.4-7.6,14.7-8.7v-3l-5-3.1
	h17.5l-5.2,3.1v14.4l12.5-11.3v-6.2h7.4V170.9L199,170.9z M235.1,170.9h-7.4v-14.5c0-3.5-0.7-7.1-2.2-10.7c-1.7-4.2-4-6.9-6.6-8.2
	h-3v33.4h-7.4v-64.2h7.4v28.4h2.2c3-1.2,5.4-3.6,7.2-7.3c1.7-3.3,2.5-6.7,2.5-10.2v-10.8h7.4v10.7c0,4.2-1,8.1-2.9,11.4
	c-2.2,4-5.3,6.2-9.2,6.6c4,0.5,7.1,3.2,9.4,8c1.8,3.9,2.7,8.2,2.7,12.9V170.9L235.1,170.9z M270.7,170.9h-7.4v-40.4l-12.5,15.8v24.6
	h-7.4v-64.2h7.4v34.4l12.5-15.9v-18.4h7.4V170.9L270.7,170.9z"/>
<path class="st1" d="M209.2,56l0.1,2.9c-3.8,2.1-38.1,0.9-45.2,0.8c3-6.3,11.7-4.9,20.2-4.9C189.5,54.8,205.7,54.2,209.2,56
	L209.2,56z M61.5,56.4c3.5-2.4,29.1-1.3,37.2-1.3c5.7,0,7.6,0.2,8.7,4.7c-8.3-0.3-16.8-0.1-25.1-0.1C68.3,59.7,62.8,61.7,61.5,56.4
	L61.5,56.4z M175.7,30.9c-1.9-2.5-2-5.9,0-8.4c2.4,0.9,2.7,0.2,2.4,4.7C177.9,32,177.8,30.1,175.7,30.9L175.7,30.9z M170.9,30.9
	c-2.2-1-2.5-0.4-2.3-4.7c0.2-4.5,0.2-2.8,2.3-3.7C173.5,25.4,173.3,28.2,170.9,30.9L170.9,30.9z M163.1,31c-0.6-10.8,0.1-7.8,2-8.6
	c2,2.5,1.4,3.9,1.2,7.9L163.1,31L163.1,31z M88.6,22.9c2.9-0.5,2.9-1,3.1,3.3c0.2,4.5,0.3,4.1-2.7,4.6C87.5,28,87.9,25.3,88.6,22.9
	L88.6,22.9z M182.5,22.4c1.3,1.5,1.9,1.1,1.6,4.8c-0.3,4.7-0.6,2.9-2.7,3.6c-0.9-1.6-1.2-1.7-1.1-4.6
	C180.4,21.8,180.4,23.3,182.5,22.4L182.5,22.4z M102.4,30.7c-2.4-0.6-2.7-0.2-2.5-4.6c0.1-3.6,0-3.5,3.2-3.5
	C103.6,25.8,104.1,28.1,102.4,30.7L102.4,30.7z M96.6,30.7c-2.6-0.5-2.8,0-2.6-4.6c0.1-4.4,0.3-3.2,2.6-3.6
	C98,24.9,97.9,28.4,96.6,30.7L96.6,30.7z M107.3,29.7l-1.7,1c-0.5-3.3-0.8-4.9,0.6-8C111.3,22.4,109.3,27.8,107.3,29.7L107.3,29.7z
	 M160.2,25c-2.7-0.8-1.8,0-2.6-2.6C161.9,22.8,159.9,21.7,160.2,25L160.2,25z M111.9,22.8l2.2-0.4l-0.9,1.8c-1.5,1,2,1.7-2,0.7
	L111.9,22.8L111.9,22.8z M136.1,6.3c1.7,1.3,10.6,11.3,14.4,14.3l10.8,9.4c1.9,1.5-0.7,0.2,1.8,1l5.1,7.5
	c4.5,10.1-5.2,21.2-12.5,21.2c1.5-4.2,5-7,5.8-13.3c0.8-6.5-1.9-11-4.9-14.6c-8.5-10.1-15.2-11.9-18.1-15.9
	c-1.3-1.8-0.7-1.3-2.3-6.1c-1,4.4-1.1,4.9-2.3,6.3c-1,1.2-3,2.2-6.7,5C99.5,41.9,114,51.1,116.4,59.5c-6.4,0.5-11.5-5.9-13.3-10.8
	c-4.2-11.7,9.1-19.9,12.8-23.4c4.6-4.3,10.9-7.5,14.1-11.4C132.6,10.8,133.7,8.8,136.1,6.3L136.1,6.3z M112.1,19.9l-5.8,0.1
	l-18.9,0.3c1.1-2,3.2-3.7,1.9-6.2c-1.8-3.3-4.4-1.8-6.4-0.9c-1.4,5.6-1.9,2.1,2,7.4c3.6,9-1.6,11.6-3.6,13.3c-1.8,1.6-2,1.9-3.6,3.2
	L61.8,50.2c-3.5,3.2-3.1,5.5-2.6,11.4l12,0.6c1.5,7.9,0.1,30.5,0.6,36.5c0.2,2.3,0.6,2.4,1.6,3.1c1.2-0.5,1.7-0.6,2-3.1
	c0.5-4.1,0.2-22.8,0.2-30.2c0-8.4-0.5-6.5,19-6.5c9.1,0,18.4-0.2,27.5,0c-4.2-7-13.8-14.4-6.4-26.5c2.4-3.9,15.9-16.4,20.4-17.9
	c4.7,2.1,17.1,13.2,20,17.4c8.5,12.2-1.9,19.4-5.7,26.9l42.6,0.1c6.4,0,8.3-1.7,8.5,4.5c0.1,2.8-0.5,28.8-0.2,31.9
	c0.2,1.4,0.5,2.6,1.3,3.6c1.8-0.5,2.5-1.7,2.6-3.7c0.3-2.8-0.4-29.2-0.2-35.1l6.3-1.9c1.3-8.9-0.9-10-5.3-13.5l-18.5-18.1
	c-3.3-8.3,2.3-10.5,1.6-16.3c-3.1-1.4-4-1.1-6.5,0.7c-0.7,4.5,0.2,2.7,1.2,6l-19.4-0.1l-9.4-0.7C144.1,10.5,145,11.9,135.8,0
	C127.5,9.5,127.4,18.4,112.1,19.9L112.1,19.9z"/>
<path class="st1" d="M84.8,80c0.5,18.3,1.5,19.6,3.3,14c1-3.1,1.1-10.6,1.5-13.4c0-0.1-0.1-1.7,0-1.9c0.2-0.8,0.2-2,1.6-4.2
	c1.3-2,4.2-3.7,7.5-3.8c11.7-0.3,5.4,10.1,14.2,9c1.6-17.3-27.8-19.6-28-0.9c0,0.2,0,2,0,2.2C84.8,81.3,84.8,79.9,84.8,80L84.8,80z"
	/>
<path class="st1" d="M125,79.8c6.4,0.2,3.4-0.3,6.2-4.7c3.9-6.1,11.7-5,15-1.1c3.1,3.9,0.4,5.7,6.6,5.9C154.3,61,124,61.6,125,79.8
	L125,79.8z"/>
<path class="st1" d="M193.1,79.6c-0.5,18.3-1.5,19.6-3.3,14c-1-3.1-1.1-10.6-1.5-13.4c0-0.1,0.1-1.7,0-1.9c-0.2-0.8-0.2-2-1.6-4.2
	c-1.3-2-4.2-3.7-7.5-3.8c-11.7-0.3-5.4,10.1-14.2,9c-1.6-17.3,27.8-19.6,28-0.9c0,0.2,0,2-0.1,2.2C193.1,80.8,193.2,79.4,193.1,79.6
	L193.1,79.6z"/>
<path class="st1" d="M86,11.2c2.9,0,5.2,2.3,5.2,5.2c0,2.9-2.3,5.2-5.2,5.2s-5.2-2.3-5.2-5.2C80.9,13.5,83.2,11.2,86,11.2L86,11.2z"
	/>
<path class="st1" d="M185.8,11.2c2.9,0,5.2,2.3,5.2,5.2c0,2.9-2.3,5.2-5.2,5.2c-2.9,0-5.2-2.3-5.2-5.2
	C180.6,13.5,182.9,11.2,185.8,11.2L185.8,11.2z"/>
</svg>
